<?xml version="1.0" standalone="no"?>
<!DOCTYPE svg PUBLIC "-//W3C//DTD SVG 20010904//EN"
 "http://www.w3.org/TR/2001/REC-SVG-20010904/DTD/svg10.dtd">
<svg version="1.0" xmlns="http://www.w3.org/2000/svg"
 width="426.000000pt" height="135.000000pt" viewBox="0 0 426.000000 135.000000"
 preserveAspectRatio="xMidYMid meet">

<g transform="translate(0.000000,135.000000) scale(0.100000,-0.100000)"
fill="#000000" stroke="none">
<path d="M50 730 l0 -580 475 0 c307 0 475 4 475 10 0 6 -166 11 -462 12
l-463 3 -3 553 -2 552 2055 0 2055 0 -2 -552 -3 -553 -477 -3 c-307 -1 -478
-6 -478 -12 0 -6 173 -10 490 -10 l490 0 0 580 0 580 -2075 0 -2075 0 0 -580z"/>
<path d="M1188 987 c-95 -27 -149 -90 -169 -199 -25 -137 18 -256 111 -308 71
-39 278 -41 337 -2 7 4 15 40 19 80 6 60 4 72 -8 72 -8 0 -24 -22 -37 -49 -32
-71 -65 -101 -113 -101 -50 0 -91 38 -109 101 -17 61 -17 223 0 282 43 147
160 141 226 -10 23 -54 35 -40 35 42 0 73 -1 76 -27 86 -43 18 -211 21 -265 6z"/>
<path d="M1530 976 c0 -9 7 -16 15 -16 29 0 35 -39 35 -232 0 -214 -3 -238
-31 -238 -11 0 -19 -7 -19 -15 0 -13 22 -15 135 -15 113 0 135 2 135 15 0 8
-9 15 -19 15 -26 0 -31 18 -31 121 0 71 3 91 15 95 25 10 43 -14 50 -69 11
-85 23 -122 50 -147 22 -21 38 -24 115 -28 97 -5 111 3 67 38 -16 13 -28 38
-36 77 -16 70 -49 117 -96 134 -39 14 -46 29 -15 29 30 0 75 26 99 56 40 51
22 142 -33 172 -46 25 -436 32 -436 8z m276 -24 c40 -26 48 -142 13 -186 -14
-17 -29 -26 -43 -24 -19 3 -21 10 -24 97 -3 108 12 141 54 113z"/>
<path d="M2060 975 c0 -8 9 -15 20 -15 27 0 29 -16 32 -227 3 -165 5 -184 24
-210 39 -54 85 -68 219 -68 132 0 166 11 209 68 19 26 21 45 26 220 3 106 9
198 13 205 5 6 15 12 23 12 8 0 14 7 14 15 0 13 -22 15 -135 15 -113 0 -135
-2 -135 -15 0 -8 9 -15 19 -15 10 0 22 -7 25 -16 3 -9 6 -97 5 -197 0 -231
-15 -280 -81 -264 -43 11 -49 44 -46 267 l3 205 23 3 c13 2 21 9 19 15 -2 8
-47 13 -140 15 -117 2 -137 0 -137 -13z"/>
<path d="M2670 976 c0 -9 8 -16 19 -16 10 0 22 -7 25 -16 9 -22 7 -427 -2
-440 -4 -6 -15 -13 -24 -17 -10 -3 -18 -11 -18 -18 0 -8 52 -10 183 -7 164 3
187 6 232 26 99 46 136 105 143 228 7 132 -26 202 -118 250 -30 16 -66 19
-237 22 -181 4 -203 2 -203 -12z m327 -51 c12 -13 27 -50 33 -82 16 -72 8
-235 -13 -285 -18 -42 -56 -71 -89 -66 l-23 3 -3 220 c-1 121 0 226 3 233 8
21 66 7 92 -23z"/>
<path d="M1113 232 c-27 -4 -53 -38 -53 -68 0 -33 37 -74 69 -74 44 0 71 26
71 69 0 52 -35 82 -87 73z m48 -22 c27 -15 26 -74 -2 -94 -48 -33 -99 28 -65
78 18 28 36 32 67 16z"/>
<path d="M1950 232 c-51 -16 -68 -84 -30 -122 42 -42 120 -12 120 48 0 51 -45
88 -90 74z m52 -29 c47 -43 -9 -123 -61 -87 -38 27 -19 104 26 104 9 0 25 -7
35 -17z"/>
<path d="M2291 223 c-30 -21 -26 -41 14 -64 39 -23 42 -31 21 -48 -11 -10 -20
-10 -37 -1 -17 10 -20 9 -17 -2 3 -7 19 -14 36 -16 23 -2 33 2 42 18 15 28 8
45 -27 62 -37 18 -37 44 0 41 31 -2 37 12 8 20 -11 3 -29 -2 -40 -10z"/>
<path d="M2870 232 c-51 -16 -68 -84 -29 -123 23 -23 79 -23 87 -1 3 11 0 12
-18 2 -17 -9 -26 -8 -46 5 -49 32 -16 115 41 101 14 -4 25 -2 25 3 0 10 -40
19 -60 13z"/>
<path d="M3104 230 c-12 -5 -24 -16 -27 -24 -7 -19 25 -56 48 -56 18 0 20 -40
3 -41 -7 -1 -24 0 -37 1 -14 1 -21 -2 -17 -9 9 -15 59 -14 74 1 22 22 13 48
-23 69 -29 18 -33 24 -24 36 8 9 21 12 36 8 27 -6 30 0 6 13 -10 6 -27 6 -39
2z"/>
<path d="M1230 166 c0 -36 5 -68 10 -71 6 -3 10 4 10 17 0 18 8 26 32 33 69
21 62 78 -11 83 l-41 3 0 -65z m68 45 c21 -13 10 -46 -16 -49 -24 -4 -38 18
-28 43 6 17 24 19 44 6z"/>
<path d="M1360 160 l0 -70 43 1 c38 1 39 2 12 8 -37 8 -50 51 -16 51 11 0 23
5 26 10 4 6 -5 10 -19 10 -21 0 -26 5 -26 24 0 20 6 25 33 29 28 3 26 4 -10 5
l-43 2 0 -70z"/>
<path d="M1470 166 c0 -36 5 -68 10 -71 6 -3 10 5 10 19 0 39 19 41 50 5 31
-36 41 -29 14 9 -14 20 -14 24 0 38 33 33 11 64 -46 64 l-38 0 0 -64z m70 39
c10 -12 10 -18 0 -30 -25 -30 -61 -7 -46 30 3 8 12 15 19 15 8 0 20 -7 27 -15z"/>
<path d="M1616 165 c-29 -73 -30 -75 -17 -75 5 0 11 9 14 20 7 29 61 27 81 -2
28 -39 27 -13 -1 55 -16 37 -33 67 -39 67 -7 0 -24 -29 -38 -65z m58 -17 c-8
-12 -44 -9 -44 3 0 6 5 20 11 31 11 21 12 21 24 -3 7 -13 11 -27 9 -31z"/>
<path d="M1730 221 c23 -6 25 -12 28 -69 4 -80 22 -81 22 -2 0 54 3 62 23 70
17 7 7 9 -38 8 -40 0 -52 -2 -35 -7z"/>
<path d="M1850 159 c0 -44 4 -68 10 -64 6 3 10 35 10 71 0 36 -4 64 -10 64 -6
0 -10 -30 -10 -71z"/>
<path d="M2070 159 c0 -44 4 -68 10 -64 6 3 10 24 10 46 0 21 3 39 8 39 4 0
22 -21 41 -45 18 -25 37 -42 42 -39 12 7 11 134 -1 134 -5 0 -10 -20 -10 -45
0 -25 -3 -45 -7 -45 -5 0 -23 21 -42 45 -18 25 -37 45 -42 45 -5 0 -9 -32 -9
-71z"/>
<path d="M2390 160 l0 -70 43 1 c38 1 39 2 12 8 -21 4 -31 13 -33 29 -3 18 1
22 22 22 14 0 26 5 26 10 0 6 -11 10 -25 10 -20 0 -25 5 -25 24 0 20 6 25 33
29 28 3 26 4 -10 5 l-43 2 0 -70z"/>
<path d="M2511 158 c1 -40 4 -62 6 -48 8 44 22 47 49 12 30 -38 54 -44 26 -5
-18 24 -18 28 -3 54 20 35 2 59 -45 59 l-34 0 1 -72z m59 52 c12 -7 12 -13 4
-27 -23 -38 -66 -19 -50 22 6 17 24 19 46 5z"/>
<path d="M2620 222 c0 -22 50 -127 60 -127 10 0 60 105 60 127 0 24 -18 2 -34
-42 -10 -27 -22 -50 -26 -50 -4 0 -16 23 -26 50 -16 44 -34 66 -34 42z"/>
<path d="M2770 160 c0 -40 4 -70 10 -70 6 0 10 30 10 70 0 40 -4 70 -10 70 -6
0 -10 -30 -10 -70z"/>
<path d="M2960 160 l0 -70 48 1 c44 2 45 2 12 8 -26 4 -36 12 -38 29 -3 18 1
22 22 22 14 0 28 5 31 10 4 6 -7 10 -25 10 -27 0 -31 3 -28 23 2 16 12 24 38
28 33 6 32 6 -12 8 l-48 1 0 -70z"/>
</g>
</svg>
